<?xml version="1.0" encoding="UTF-8"?>
<svg xmlns="http://www.w3.org/2000/svg" xmlns:xlink="http://www.w3.org/1999/xlink" viewBox="0 0 160 160" version="1.1">
<path style="stroke:none;fill-rule:nonzero;fill:rgb(87.45098%,92.54902%,96.470588%);fill-opacity:1;" d="M 0 0 C 51.542969 0 103.085938 0 160 0 C 160 52.800781 160 105.601562 160 160 C 104.648438 160 53.105469 160 0 160 C 0 107.199219 0 54.398438 0 0 Z M 0 0 "/>
<path style="stroke:none;fill-rule:nonzero;fill:rgb(0.392157%,38.823529%,69.411765%);fill-opacity:1;" d="M 3.808594 3.808594 C 54.09375 3.808594 104.382812 3.808594 156.191406 3.808594 C 156.191406 21.410156 156.191406 39.007812 156.191406 57.144531 C 146.78125 53.371094 146.78125 53.371094 137.144531 49.523438 C 137.144531 40.722656 137.144531 31.921875 137.144531 22.855469 C 99.429688 22.855469 61.714844 22.855469 22.855469 22.855469 C 22.855469 60.570312 22.855469 98.285156 22.855469 137.144531 C 34.171875 137.144531 45.484375 137.144531 57.144531 137.144531 C 57.144531 122.058594 57.144531 106.972656 57.144531 91.429688 C 64.6875 87.65625 72.230469 83.886719 80 80 C 80 105.144531 80 130.285156 80 156.191406 C 54.855469 156.191406 29.714844 156.191406 3.808594 156.191406 C 3.808594 105.90625 3.808594 55.617188 3.808594 3.808594 Z M 3.808594 3.808594 "/>
<path style="stroke:none;fill-rule:nonzero;fill:rgb(3.921569%,40.784314%,70.588235%);fill-opacity:1;" d="M 95.238281 41.90625 C 117.371094 47.429688 135.886719 58.210938 156.191406 68.570312 C 156.191406 97.484375 156.191406 126.398438 156.191406 156.191406 C 136.078125 156.191406 115.960938 156.191406 95.238281 156.191406 C 95.238281 118.476562 95.238281 80.761719 95.238281 41.90625 Z M 95.238281 41.90625 "/>
<path style="stroke:none;fill-rule:nonzero;fill:rgb(3.529412%,59.215686%,86.666667%);fill-opacity:1;" d="M 80 80 C 80 105.144531 80 130.285156 80 156.191406 C 72.457031 156.191406 64.914062 156.191406 57.144531 156.191406 C 56.648438 145.636719 56.265625 135.085938 55.960938 124.535156 C 55.808594 121.523438 55.617188 118.550781 55.464844 115.464844 C 55.277344 107.046875 55.3125 99.65625 57.144531 91.429688 C 70.894531 80 70.894531 80 80 80 Z M 80 80 "/>
<path style="stroke:none;fill-rule:nonzero;fill:rgb(86.666667%,91.372549%,95.686275%);fill-opacity:1;" d="M 121.90625 76.191406 C 126.933594 77.449219 131.960938 78.703125 137.144531 80 C 137.144531 98.855469 137.144531 117.714844 137.144531 137.144531 C 132.113281 137.144531 127.085938 137.144531 121.90625 137.144531 C 121.90625 117.027344 121.90625 96.914062 121.90625 76.191406 Z M 121.90625 76.191406 "/>
<path style="stroke:none;fill-rule:nonzero;fill:rgb(11.372549%,62.745098%,87.843137%);fill-opacity:1;" d="M 80 49.523438 C 80 55.808594 80 62.09375 80 68.570312 C 72.457031 71.085938 64.914062 73.601562 57.144531 76.191406 C 57.144531 69.90625 57.144531 63.617188 57.144531 57.144531 C 71.429688 49.523438 71.429688 49.523438 80 49.523438 Z M 80 49.523438 "/>
</svg>
